<mxfile host="app.diagrams.net" modified="2022-03-02T00:37:39.847Z" agent="5.0 (Windows)" etag="8U4wuL_kY0S_mHnWd58b" version="16.6.4" type="github" pages="2">
  <diagram id="nfoixJyH2jYoztbYdDhO" name="GameManager">
    <mxGraphModel dx="631" dy="809" grid="1" gridSize="10" guides="1" tooltips="1" connect="1" arrows="1" fold="1" page="1" pageScale="1" pageWidth="2000" pageHeight="1100" math="0" shadow="0">
      <root>
        <mxCell id="0" />
        <mxCell id="1" parent="0" />
        <mxCell id="oCp5e-cikKrJT2kfJEhm-3" value="" style="rounded=0;whiteSpace=wrap;html=1;fontSize=20;align=left;" parent="1" vertex="1">
          <mxGeometry x="50" y="280" width="1130" height="660" as="geometry" />
        </mxCell>
        <mxCell id="72A0XE88jwHsb3fXYXdt-1" value="&lt;div style=&quot;font-size: 11px&quot;&gt;&lt;font style=&quot;font-size: 11px&quot;&gt;- contains references to all major classes&lt;/font&gt;&lt;/div&gt;&lt;div style=&quot;font-size: 11px&quot;&gt;&lt;font style=&quot;font-size: 11px&quot;&gt;- contains all game state variables&lt;br&gt;&lt;/font&gt;&lt;/div&gt;&lt;div style=&quot;font-size: 11px&quot;&gt;&lt;font style=&quot;font-size: 11px&quot;&gt;&lt;br&gt;&lt;/font&gt;&lt;/div&gt;&lt;div style=&quot;font-size: 11px&quot;&gt;&lt;b&gt;&lt;font style=&quot;font-size: 11px&quot;&gt;Notes:&lt;/font&gt;&lt;/b&gt;&lt;/div&gt;&lt;div style=&quot;font-size: 11px&quot;&gt;&lt;font style=&quot;font-size: 11px&quot;&gt;- now only contains references&lt;/font&gt;&lt;/div&gt;&lt;div style=&quot;font-size: 11px&quot;&gt;&lt;font style=&quot;font-size: 11px&quot;&gt;- functionalities already inside should be split into separate classes&lt;br&gt;&lt;/font&gt;&lt;/div&gt;" style="rounded=0;whiteSpace=wrap;html=1;align=left;" parent="1" vertex="1">
          <mxGeometry x="550" y="60" width="120" height="160" as="geometry" />
        </mxCell>
        <mxCell id="72A0XE88jwHsb3fXYXdt-2" value="Gamemanager" style="rounded=0;whiteSpace=wrap;html=1;" parent="1" vertex="1">
          <mxGeometry x="550" y="30" width="120" height="30" as="geometry" />
        </mxCell>
        <mxCell id="72A0XE88jwHsb3fXYXdt-4" value="&lt;div style=&quot;font-size: 11px&quot;&gt;&lt;font style=&quot;font-size: 11px&quot;&gt;- contains references to all food sources&lt;/font&gt;&lt;/div&gt;&lt;div style=&quot;font-size: 11px&quot;&gt;&lt;font style=&quot;font-size: 11px&quot;&gt;- parents all of the food sources&lt;br&gt;&lt;/font&gt;&lt;/div&gt;&lt;div style=&quot;font-size: 11px&quot;&gt;&lt;font style=&quot;font-size: 11px&quot;&gt;&lt;br&gt;&lt;/font&gt;&lt;/div&gt;&lt;div style=&quot;font-size: 11px&quot;&gt;&lt;b&gt;&lt;font style=&quot;font-size: 11px&quot;&gt;Notes:&lt;/font&gt;&lt;/b&gt;&lt;/div&gt;&lt;div style=&quot;font-size: 11px&quot;&gt;&lt;font style=&quot;font-size: 11px&quot;&gt;- should contain all of the data for food sources; currently this is shared with the gridsystem for position data&lt;br&gt;&lt;/font&gt;&lt;/div&gt;" style="rounded=0;whiteSpace=wrap;html=1;align=left;" parent="1" vertex="1">
          <mxGeometry x="390" y="330" width="120" height="180" as="geometry" />
        </mxCell>
        <mxCell id="72A0XE88jwHsb3fXYXdt-5" value="FoodSourceManager" style="rounded=0;whiteSpace=wrap;html=1;" parent="1" vertex="1">
          <mxGeometry x="390" y="300" width="120" height="30" as="geometry" />
        </mxCell>
        <mxCell id="72A0XE88jwHsb3fXYXdt-7" value="&lt;div style=&quot;font-size: 11px&quot;&gt;&lt;font style=&quot;font-size: 11px&quot;&gt;- controls dialogue flow&lt;/font&gt;&lt;/div&gt;&lt;div style=&quot;font-size: 11px&quot;&gt;&lt;font style=&quot;font-size: 11px&quot;&gt;- should be able to be called whenever&lt;/font&gt;&lt;/div&gt;&lt;div style=&quot;font-size: 11px&quot;&gt;&lt;font style=&quot;font-size: 11px&quot;&gt;- uses events to induce callbacks based on player actions&lt;br&gt;&lt;/font&gt;&lt;/div&gt;" style="rounded=0;whiteSpace=wrap;html=1;align=left;" parent="1" vertex="1">
          <mxGeometry x="230" y="330" width="120" height="130" as="geometry" />
        </mxCell>
        <mxCell id="72A0XE88jwHsb3fXYXdt-8" value="&lt;div&gt;DialogueManager&lt;/div&gt;" style="rounded=0;whiteSpace=wrap;html=1;" parent="1" vertex="1">
          <mxGeometry x="230" y="300" width="120" height="30" as="geometry" />
        </mxCell>
        <mxCell id="72A0XE88jwHsb3fXYXdt-9" value="&lt;div&gt;- contains all information related to Populations&lt;/div&gt;&lt;div&gt;- contains functions for finding proper populations&lt;br&gt;&lt;/div&gt;" style="rounded=0;whiteSpace=wrap;html=1;align=left;" parent="1" vertex="1">
          <mxGeometry x="550" y="330" width="120" height="100" as="geometry" />
        </mxCell>
        <mxCell id="72A0XE88jwHsb3fXYXdt-10" value="PopulationManager" style="rounded=0;whiteSpace=wrap;html=1;" parent="1" vertex="1">
          <mxGeometry x="550" y="300" width="120" height="30" as="geometry" />
        </mxCell>
        <mxCell id="72A0XE88jwHsb3fXYXdt-13" value="&lt;div&gt;- controls all camera movement&lt;/div&gt;&lt;div&gt;&lt;br&gt;&lt;/div&gt;&lt;div&gt;&lt;b&gt;Notes:&lt;/b&gt;&lt;/div&gt;&lt;div&gt;- classes can be combined&lt;br&gt;&lt;/div&gt;&lt;div&gt;- PlayerController used for nothing atm&lt;br&gt;&lt;/div&gt;" style="rounded=0;whiteSpace=wrap;html=1;align=left;" parent="1" vertex="1">
          <mxGeometry x="870" y="590" width="120" height="130" as="geometry" />
        </mxCell>
        <mxCell id="72A0XE88jwHsb3fXYXdt-14" value="&lt;div&gt;PlayerController/&lt;/div&gt;&lt;div&gt;CameraController&lt;br&gt;&lt;/div&gt;" style="rounded=0;whiteSpace=wrap;html=1;" parent="1" vertex="1">
          <mxGeometry x="870" y="560" width="120" height="30" as="geometry" />
        </mxCell>
        <mxCell id="72A0XE88jwHsb3fXYXdt-19" value="&lt;font style=&quot;font-size: 20px&quot;&gt;Classes Referenced from GameManager&lt;/font&gt;" style="text;html=1;strokeColor=none;fillColor=none;align=center;verticalAlign=middle;whiteSpace=wrap;rounded=0;fontSize=11;" parent="1" vertex="1">
          <mxGeometry x="420" y="230" width="360" height="30" as="geometry" />
        </mxCell>
        <mxCell id="72A0XE88jwHsb3fXYXdt-22" value="&lt;div&gt;- stores tilemap information (what the tile is at a coordinate)&lt;/div&gt;&lt;div&gt;&lt;br&gt;&lt;/div&gt;&lt;div&gt;&lt;b&gt;Notes:&lt;/b&gt;&lt;/div&gt;&lt;div&gt;- currently contains way too many functionalities&lt;/div&gt;&lt;div&gt;- needs to be split into separate classes: construction, math, and tile type&lt;/div&gt;&lt;div&gt;- FoodSources and Animals are dependent on this class for location data, should be uncoupled&lt;br&gt;&lt;/div&gt;" style="rounded=0;whiteSpace=wrap;html=1;align=left;" parent="1" vertex="1">
          <mxGeometry x="390" y="590" width="120" height="280" as="geometry" />
        </mxCell>
        <mxCell id="72A0XE88jwHsb3fXYXdt-23" value="&lt;div&gt;TileDataController&lt;/div&gt;" style="rounded=0;whiteSpace=wrap;html=1;" parent="1" vertex="1">
          <mxGeometry x="390" y="560" width="120" height="30" as="geometry" />
        </mxCell>
        <mxCell id="72A0XE88jwHsb3fXYXdt-28" value="&lt;div&gt;- Determines which populations has access to what liquids/tiles&lt;/div&gt;&lt;div&gt;&lt;br&gt;&lt;/div&gt;&lt;div&gt;&lt;b&gt;Notes:&lt;/b&gt;&lt;/div&gt;&lt;div&gt;- This needs to be under PopulationSystem, not Plot&lt;/div&gt;&lt;div&gt;- Does not need to be accessed by GameManager&lt;/div&gt;&lt;div&gt;- function calls to RPM can and should be accessed by the Population requested through the PopulationManager&lt;br&gt;&lt;/div&gt;" style="rounded=0;whiteSpace=wrap;html=1;align=left;dashed=1;" parent="1" vertex="1">
          <mxGeometry x="70" y="590" width="120" height="280" as="geometry" />
        </mxCell>
        <mxCell id="72A0XE88jwHsb3fXYXdt-29" value="&lt;div&gt;ReservePartition&lt;/div&gt;&lt;div&gt;Manager&lt;/div&gt;" style="rounded=0;whiteSpace=wrap;html=1;dashed=1;" parent="1" vertex="1">
          <mxGeometry x="70" y="560" width="120" height="30" as="geometry" />
        </mxCell>
        <mxCell id="72A0XE88jwHsb3fXYXdt-30" value="&lt;div&gt;- controls internal dialogue system via third party script&lt;/div&gt;&lt;div&gt;&lt;br&gt;&lt;/div&gt;&lt;div&gt;&lt;b&gt;Notes:&lt;/b&gt;&lt;/div&gt;&lt;div&gt;- does not need to be accessed by the Gamemanager&lt;/div&gt;&lt;div&gt;- skip dialogue should be added to debug instead&lt;br&gt;&lt;/div&gt;" style="rounded=0;whiteSpace=wrap;html=1;align=left;dashed=1;" parent="1" vertex="1">
          <mxGeometry x="70" y="330" width="120" height="180" as="geometry" />
        </mxCell>
        <mxCell id="72A0XE88jwHsb3fXYXdt-31" value="ConversationManager" style="rounded=0;whiteSpace=wrap;html=1;dashed=1;" parent="1" vertex="1">
          <mxGeometry x="70" y="300" width="120" height="30" as="geometry" />
        </mxCell>
        <mxCell id="72A0XE88jwHsb3fXYXdt-35" value="&lt;div&gt;- updates animal patterns based on serialized list&lt;/div&gt;&lt;div&gt;&lt;br&gt;&lt;/div&gt;&lt;div&gt;&lt;b&gt;Notes:&lt;/b&gt;&lt;/div&gt;&lt;div&gt;- not being utilized by GameManager, can be removed&lt;br&gt;&lt;/div&gt;" style="rounded=0;whiteSpace=wrap;html=1;align=left;dashed=1;" parent="1" vertex="1">
          <mxGeometry x="710" y="330" width="120" height="130" as="geometry" />
        </mxCell>
        <mxCell id="72A0XE88jwHsb3fXYXdt-36" value="&lt;div&gt;BehaviorPattern&lt;/div&gt;&lt;div&gt;Updater&lt;/div&gt;" style="rounded=0;whiteSpace=wrap;html=1;dashed=1;" parent="1" vertex="1">
          <mxGeometry x="710" y="300" width="120" height="30" as="geometry" />
        </mxCell>
        <mxCell id="72A0XE88jwHsb3fXYXdt-37" value="&lt;div&gt;- controls how tiles are placed on the tilemap&lt;/div&gt;&lt;div&gt;&lt;br&gt;&lt;/div&gt;&lt;div&gt;&lt;b&gt;Notes:&lt;/b&gt;&lt;/div&gt;&lt;div&gt;- does not need to be referenced by the GameManager&lt;/div&gt;&lt;div&gt;- the state variables, however, can be moved to the GameManager&lt;br&gt;&lt;/div&gt;" style="rounded=0;whiteSpace=wrap;html=1;align=left;dashed=1;" parent="1" vertex="1">
          <mxGeometry x="870" y="330" width="120" height="180" as="geometry" />
        </mxCell>
        <mxCell id="72A0XE88jwHsb3fXYXdt-38" value="&lt;div&gt;TilePlacement&lt;/div&gt;&lt;div&gt;Controller&lt;/div&gt;" style="rounded=0;whiteSpace=wrap;html=1;dashed=1;" parent="1" vertex="1">
          <mxGeometry x="870" y="300" width="120" height="30" as="geometry" />
        </mxCell>
        <mxCell id="72A0XE88jwHsb3fXYXdt-39" value="&lt;div&gt;- controls how the map is loaded in&lt;/div&gt;&lt;div&gt;&lt;br&gt;&lt;/div&gt;&lt;div&gt;&lt;b&gt;Notes:&lt;/b&gt;&lt;/div&gt;&lt;div&gt;- can just be private&lt;br&gt;&lt;/div&gt;" style="rounded=0;whiteSpace=wrap;html=1;align=left;dashed=1;dashPattern=1 4;perimeterSpacing=0;" parent="1" vertex="1">
          <mxGeometry x="230" y="590" width="120" height="80" as="geometry" />
        </mxCell>
        <mxCell id="72A0XE88jwHsb3fXYXdt-40" value="PlotIO" style="rounded=0;whiteSpace=wrap;html=1;dashed=1;dashPattern=1 4;perimeterSpacing=0;" parent="1" vertex="1">
          <mxGeometry x="230" y="560" width="120" height="30" as="geometry" />
        </mxCell>
        <mxCell id="72A0XE88jwHsb3fXYXdt-41" value="&lt;div&gt;- determines what tiles the enclosures take up&lt;/div&gt;&lt;div&gt;&lt;br&gt;&lt;/div&gt;&lt;div&gt;Notes:&lt;/div&gt;&lt;div&gt;- should be event based update&lt;/div&gt;&lt;div&gt;- does not need to be in GameManager&lt;br&gt;&lt;/div&gt;" style="rounded=0;whiteSpace=wrap;html=1;align=left;dashed=1;" parent="1" vertex="1">
          <mxGeometry x="550" y="590" width="120" height="150" as="geometry" />
        </mxCell>
        <mxCell id="72A0XE88jwHsb3fXYXdt-42" value="EnclosureSystem" style="rounded=0;whiteSpace=wrap;html=1;dashed=1;" parent="1" vertex="1">
          <mxGeometry x="550" y="560" width="120" height="30" as="geometry" />
        </mxCell>
        <mxCell id="oCp5e-cikKrJT2kfJEhm-1" value="&lt;div&gt;- controls Inspector functionality&lt;br&gt;&lt;/div&gt;" style="rounded=0;whiteSpace=wrap;html=1;align=left;" parent="1" vertex="1">
          <mxGeometry x="710" y="590" width="120" height="40" as="geometry" />
        </mxCell>
        <mxCell id="oCp5e-cikKrJT2kfJEhm-2" value="Inspector" style="rounded=0;whiteSpace=wrap;html=1;" parent="1" vertex="1">
          <mxGeometry x="710" y="560" width="120" height="30" as="geometry" />
        </mxCell>
        <mxCell id="oCp5e-cikKrJT2kfJEhm-4" value="- contains collection of resources" style="rounded=0;whiteSpace=wrap;html=1;align=left;" parent="1" vertex="1">
          <mxGeometry x="1030" y="330" width="120" height="50" as="geometry" />
        </mxCell>
        <mxCell id="oCp5e-cikKrJT2kfJEhm-5" value="ResourceManager" style="rounded=0;whiteSpace=wrap;html=1;" parent="1" vertex="1">
          <mxGeometry x="1030" y="300" width="120" height="30" as="geometry" />
        </mxCell>
        <mxCell id="oCp5e-cikKrJT2kfJEhm-6" value="&lt;div&gt;- controls menu flow and what state the menus are in&lt;/div&gt;" style="rounded=0;whiteSpace=wrap;html=1;align=left;" parent="1" vertex="1">
          <mxGeometry x="1030" y="590" width="120" height="60" as="geometry" />
        </mxCell>
        <mxCell id="oCp5e-cikKrJT2kfJEhm-7" value="MenuManager" style="rounded=0;whiteSpace=wrap;html=1;" parent="1" vertex="1">
          <mxGeometry x="1030" y="560" width="120" height="30" as="geometry" />
        </mxCell>
        <mxCell id="oCp5e-cikKrJT2kfJEhm-8" value="&lt;font style=&quot;font-size: 21px&quot;&gt;New classes that should be created (TBD)&lt;br&gt;&lt;/font&gt;" style="text;html=1;strokeColor=none;fillColor=none;align=center;verticalAlign=middle;whiteSpace=wrap;rounded=0;fontSize=11;" parent="1" vertex="1">
          <mxGeometry x="1490" y="230" width="360" height="30" as="geometry" />
        </mxCell>
      </root>
    </mxGraphModel>
  </diagram>
  <diagram id="tAvH7AZPnRwwPdbZQdZh" name="Page-2">
    <mxGraphModel dx="1378" dy="871" grid="1" gridSize="10" guides="1" tooltips="1" connect="1" arrows="1" fold="1" page="1" pageScale="1" pageWidth="2000" pageHeight="1100" math="0" shadow="0">
      <root>
        <mxCell id="VllLpAGnOVB6vDw8HVwC-0" />
        <mxCell id="VllLpAGnOVB6vDw8HVwC-1" parent="VllLpAGnOVB6vDw8HVwC-0" />
      </root>
    </mxGraphModel>
  </diagram>
</mxfile>
